<svg width="70" height="42" viewBox="0 0 70 42" fill="none" xmlns="http://www.w3.org/2000/svg">
<g clip-path="url(#clip0)">
<path fill-rule="evenodd" clip-rule="evenodd" d="M20.9006 41.1205C9.41466 41.1205 0.104004 31.9225 0.104004 20.5747C0.104004 9.22728 9.41466 0.0283203 20.9006 0.0283203C32.3855 0.0283203 41.6955 9.22728 41.6955 20.5747C41.6955 31.9225 32.3855 41.1205 20.9006 41.1205Z" fill="#D82332"/>
<path fill-rule="evenodd" clip-rule="evenodd" d="M49.0242 0.0283203C43.65 0.0283203 38.7543 2.04241 35.063 5.34651C34.3124 6.01993 33.6111 6.74725 32.9647 7.52165H37.1656C37.7394 8.21195 38.2686 8.93765 38.751 9.69776H31.3783C30.9376 10.3962 30.5363 11.1219 30.1804 11.8739H39.9489C40.2828 12.5781 40.5766 13.3035 40.8296 14.049H29.2997C29.0594 14.7578 28.8573 15.4835 28.6953 16.2238H41.433C41.7377 17.6265 41.9 19.0818 41.9 20.5747C41.9 22.8557 41.524 25.0513 40.8296 27.1018H29.2997C29.5524 27.847 29.8465 28.573 30.1798 29.2782H39.9489C39.592 30.0283 39.1927 30.7546 38.7494 31.454H31.3783C31.8594 32.2118 32.3895 32.9385 32.9647 33.6278H37.1643C36.5189 34.4029 35.8172 35.1302 35.064 35.8036C38.7549 39.1077 43.65 41.1205 49.0242 41.1205C60.5092 41.1205 69.8198 31.9225 69.8198 20.5747C69.8198 9.22825 60.5092 0.0283203 49.0242 0.0283203Z" fill="#F1AB3E"/>
<path fill-rule="evenodd" clip-rule="evenodd" d="M66.8174 31.8626C66.8174 31.4963 67.1184 31.1992 67.4895 31.1992C67.8611 31.1992 68.1609 31.4963 68.1609 31.8626C68.1609 32.2291 67.8611 32.5266 67.4895 32.5266C67.1184 32.5266 66.8174 32.2291 66.8174 31.8626ZM67.4895 32.3675C67.7704 32.3675 67.9998 32.1412 67.9998 31.8626C67.9998 31.583 67.7704 31.3586 67.4895 31.3586C67.2071 31.3586 66.9784 31.583 66.9784 31.8626C66.9784 32.1412 67.2071 32.3675 67.4895 32.3675ZM67.3984 32.1538H67.2604V31.5716H67.5105C67.5621 31.5716 67.6153 31.5716 67.6613 31.5996C67.7083 31.6327 67.7359 31.6882 67.7359 31.746C67.7359 31.8119 67.6975 31.8736 67.6334 31.897L67.7425 32.1538H67.5897L67.499 31.9236H67.3984V32.1538ZM67.3984 31.8233H67.4747C67.5029 31.8233 67.5332 31.8252 67.5588 31.8119C67.5811 31.7973 67.5933 31.7713 67.5933 31.7447C67.5933 31.7226 67.5782 31.6967 67.5594 31.6853C67.5351 31.6713 67.497 31.6742 67.4714 31.6742H67.3984V31.8233Z" fill="#F1AB3E"/>
<path fill-rule="evenodd" clip-rule="evenodd" d="M66.8174 25.3691C66.8174 25.0012 67.1191 24.7051 67.4881 24.7051C67.8598 24.7051 68.1596 25.0012 68.1596 25.3691C68.1596 25.7344 67.8598 26.0324 67.4881 26.0324C67.1191 26.0324 66.8174 25.7344 66.8174 25.3691ZM67.4881 25.8733C67.7711 25.8733 67.9998 25.647 67.9998 25.3691C67.9998 25.0908 67.7711 24.8645 67.4881 24.8645C67.2065 24.8645 66.9784 25.0908 66.9784 25.3691C66.9784 25.647 67.2065 25.8733 67.4881 25.8733ZM67.3978 25.659H67.2604V25.0769H67.5098C67.5621 25.0769 67.6147 25.0788 67.6603 25.1067C67.709 25.1382 67.7353 25.1941 67.7353 25.2519C67.7353 25.3178 67.6968 25.3795 67.6341 25.4028L67.7425 25.659H67.5897L67.499 25.4288H67.3978V25.659ZM67.3978 25.3291H67.474C67.5016 25.3291 67.5338 25.3317 67.5581 25.3178C67.5805 25.3038 67.592 25.2759 67.592 25.2506C67.592 25.2285 67.5788 25.2038 67.5595 25.1902C67.5358 25.1772 67.497 25.1808 67.4714 25.1808H67.3978V25.3291Z" fill="#FFFFFE"/>
<path fill-rule="evenodd" clip-rule="evenodd" d="M64.6901 15.9385L64.1883 18.9494C63.5721 18.1471 62.9089 17.5659 62.0334 17.5659C60.894 17.5659 59.8575 18.4192 59.1785 19.6757C58.2327 19.4819 57.256 19.1523 57.256 19.1523L57.2553 19.1604C57.3303 18.4581 57.3625 18.0308 57.3549 17.8847H55.2809C54.9992 20.5086 54.4964 23.1652 54.1043 25.7901L54.0005 26.3602H56.2599C56.5645 24.4043 56.7975 22.7782 56.9697 21.4905C57.7417 20.8011 58.1282 20.2011 58.9067 20.24C58.5617 21.0654 58.3599 22.0155 58.3599 22.9902C58.3599 25.1082 59.4441 26.5067 61.0859 26.5067C61.9134 26.5067 62.548 26.2245 63.1675 25.5712L63.0611 26.3596H65.1972L66.9166 15.9385H64.6901ZM61.8665 24.4023C61.0981 24.4023 60.7093 23.8393 60.7093 22.7314C60.7093 21.0654 61.4366 19.8845 62.4603 19.8845C63.2362 19.8845 63.6565 20.4677 63.6565 21.5443C63.6565 23.2246 62.9171 24.4023 61.8665 24.4023Z" fill="#0C2D5A"/>
<path fill-rule="evenodd" clip-rule="evenodd" d="M51.7116 22.7763C51.4759 22.749 51.3714 22.7416 51.2091 22.7416C49.9297 22.7416 49.2819 23.1747 49.2819 24.0309C49.2819 24.5579 49.5981 24.8953 50.091 24.8953C51.0099 24.8953 51.6738 24.0303 51.7116 22.7763ZM53.3548 26.5515H51.4845L51.5269 25.6739C50.956 26.3671 50.1949 26.6986 49.1613 26.6986C47.9368 26.6986 47.0991 25.7538 47.0991 24.3829C47.0991 22.3185 48.557 21.1165 51.0622 21.1165C51.3182 21.1165 51.6455 21.1395 51.981 21.1824C52.051 20.9018 52.0698 20.7827 52.0698 20.6307C52.0698 20.0703 51.6777 19.8615 50.6225 19.8615C49.5182 19.8485 48.6082 20.1203 48.2326 20.2414C48.2566 20.1011 48.5458 18.3358 48.5458 18.3358C49.671 18.0098 50.4125 17.8867 51.2475 17.8867C53.1862 17.8867 54.2135 18.7475 54.2112 20.3723C54.2155 20.8077 54.1425 21.3464 54.0288 22.0516C53.8329 23.278 53.4126 25.9119 53.3548 26.5515Z" fill="#0C2D5A"/>
<path fill-rule="evenodd" clip-rule="evenodd" d="M45.7567 18.1946C46.3837 18.1946 46.969 18.3557 47.7742 18.757L48.1439 16.4955C47.812 16.3669 46.6483 15.6133 45.6624 15.6133C44.152 15.6133 42.8732 16.3549 41.976 17.5761C40.6654 17.1475 40.1261 18.0138 39.4662 18.8774L38.8796 19.0125C38.924 18.7284 38.9644 18.4459 38.9516 18.1602H36.8769C36.5946 20.7841 36.0928 23.4407 35.6997 26.0656L35.5972 26.6357H37.8559C38.2325 24.2154 38.4386 22.6663 38.5644 21.6169L39.415 21.1513C39.5428 20.6834 39.9395 20.5263 40.7371 20.5454C40.6332 21.098 40.5767 21.6802 40.5767 22.2825C40.5767 25.0558 42.0927 26.7822 44.5223 26.7822C45.1481 26.7822 45.686 26.701 46.5185 26.477L46.9138 24.1021C46.1655 24.4655 45.5526 24.6366 44.9966 24.6366C43.684 24.6366 42.89 23.6791 42.89 22.0975C42.89 19.8022 44.0705 18.1946 45.7567 18.1946Z" fill="#0C2D5A"/>
<path fill-rule="evenodd" clip-rule="evenodd" d="M34.8201 26.3558C34.0492 26.5889 33.3041 26.6993 32.517 26.6986C30.0043 26.697 28.6953 25.3999 28.6953 22.9179C28.6953 20.02 30.3609 17.8867 32.6216 17.8867C34.4734 17.8867 35.6546 19.0809 35.6546 20.9554C35.6546 21.5766 35.5724 22.1828 35.3785 23.039H30.9094C30.7575 24.2686 31.5545 24.7816 32.8595 24.7816C33.6624 24.7816 34.3873 24.6173 35.1938 24.2472L34.8201 26.3558ZM33.5588 21.3298C33.571 21.1525 33.7964 19.817 32.5141 19.817C31.7996 19.817 31.2886 20.3564 31.0802 21.3298H33.5588Z" fill="#0C2D5A"/>
<path fill-rule="evenodd" clip-rule="evenodd" d="M27.8303 26.541C27.2128 26.7332 26.731 26.8166 26.2088 26.8166C25.0546 26.8166 24.4243 26.1611 24.4243 24.9555C24.4085 24.5795 24.5909 23.596 24.7342 22.6959C24.8643 21.9033 25.7132 16.9121 25.7132 16.9121H27.9572L27.6949 18.1947H28.8468L28.5402 20.2312H27.3843C27.1237 21.8442 26.7517 23.8509 26.7474 24.1171C26.7474 24.5555 26.9841 24.7451 27.5211 24.7451C27.7781 24.7451 27.9772 24.7201 28.1297 24.6652L27.8303 26.541Z" fill="#0C2D5A"/>
<path fill-rule="evenodd" clip-rule="evenodd" d="M19.0337 20.7557C19.0337 21.8288 19.5601 22.5666 20.7534 23.1228C21.6674 23.5475 21.8087 23.6731 21.8087 24.0582C21.8087 24.5865 21.4058 24.8248 20.5122 24.8248C19.8385 24.8248 19.2121 24.7216 18.4891 24.4914C18.4891 24.4914 18.1933 26.3587 18.1792 26.447C18.6922 26.558 19.15 26.6593 20.5283 26.6986C22.9109 26.6986 24.0112 25.8028 24.0112 23.866C24.0112 22.701 23.5505 22.0178 22.4196 21.5048C21.4731 21.0746 21.3644 20.9794 21.3644 20.5833C21.3644 20.1252 21.7393 19.8894 22.4693 19.8894C22.9119 19.8894 23.5176 19.9381 24.0914 20.018L24.4128 18.0526C23.8282 17.9614 22.9422 17.8867 22.4255 17.8867C19.9 17.8867 19.0261 19.19 19.0337 20.7557Z" fill="#0C2D5A"/>
<path fill-rule="evenodd" clip-rule="evenodd" d="M16.2205 22.7763C15.9839 22.749 15.8794 22.7416 15.7167 22.7416C14.437 22.7416 13.7893 23.1747 13.7893 24.0309C13.7893 24.5579 14.1054 24.8953 14.5987 24.8953C15.5186 24.8953 16.1814 24.0303 16.2205 22.7763ZM17.8624 26.5515H15.9921L16.0348 25.6739C15.4643 26.3671 14.7029 26.6986 13.6687 26.6986C12.4451 26.6986 11.6064 25.7538 11.6064 24.3829C11.6064 22.3185 13.0653 21.1165 15.5698 21.1165C15.8262 21.1165 16.1541 21.1395 16.49 21.1824C16.56 20.9018 16.5784 20.7827 16.5784 20.6307C16.5784 20.0703 16.185 19.8615 15.1308 19.8615C14.0256 19.8485 13.1152 20.1203 12.7406 20.2414C12.7642 20.1011 13.0538 18.3358 13.0538 18.3358C14.1787 18.0098 14.9208 17.8867 15.7558 17.8867C17.6945 17.8867 18.7211 18.7475 18.7192 20.3723C18.7231 20.8077 18.6502 21.3464 18.5368 22.0516C18.3406 23.278 17.9199 25.9119 17.8624 26.5515Z" fill="#0C2D5A"/>
<path fill-rule="evenodd" clip-rule="evenodd" d="M10.4715 26.6835H8.21404L9.50756 18.6726L6.61982 26.6835H5.08113L4.89085 18.719L3.5316 26.6835H1.41846L3.18357 16.2627H6.43019L6.52057 22.7138L8.71127 16.2627H12.2175L10.4715 26.6835Z" fill="#0C2D5A"/>
<path fill-rule="evenodd" clip-rule="evenodd" d="M66.0958 26.0341H63.9606L64.0664 25.2454C63.447 25.899 62.812 26.1812 61.9848 26.1812C60.344 26.1812 59.2588 24.7843 59.2588 22.6641C59.2588 19.845 60.9417 17.4689 62.932 17.4689C63.8078 17.4689 64.4707 17.8222 65.0882 18.6248L65.589 15.6133H67.8156L66.0958 26.0341ZM62.7654 24.0758C63.8173 24.0758 64.5555 22.8988 64.5555 21.2201C64.5555 20.1431 64.1351 19.5583 63.3589 19.5583C62.3352 19.5583 61.6079 20.7393 61.6079 22.4059C61.6079 23.5154 61.9977 24.0758 62.7654 24.0758Z" fill="#FFFFFE"/>
<path fill-rule="evenodd" clip-rule="evenodd" d="M55.9383 17.3283C55.6556 19.9515 55.1538 22.6085 54.7611 25.233L54.6582 25.8032H56.9163C57.7237 20.6204 57.9183 19.609 59.1855 19.7353C59.387 18.6745 59.7623 17.7455 60.0423 17.2773C59.0968 17.0825 58.5687 17.6105 57.8766 18.6138C57.9318 18.1796 58.0313 17.7585 58.0126 17.3283H55.9383Z" fill="#FFFFFE"/>
<path fill-rule="evenodd" clip-rule="evenodd" d="M52.3693 22.1269C52.1336 22.0996 52.0291 22.0922 51.8668 22.0922C50.5874 22.0922 49.9397 22.5253 49.9397 23.3815C49.9397 23.9085 50.2558 24.2459 50.7488 24.2459C51.6676 24.2459 52.3315 23.3809 52.3693 22.1269ZM54.0125 25.9021H52.1422L52.1846 25.0245C51.6137 25.7177 50.8526 26.0492 49.819 26.0492C48.5945 26.0492 47.7568 25.1044 47.7568 23.7335C47.7568 21.6691 49.2147 20.4671 51.7199 20.4671C51.9759 20.4671 52.3032 20.4901 52.6388 20.533C52.7088 20.2524 52.7275 20.1333 52.7275 19.9813C52.7275 19.4209 52.3354 19.2121 51.2802 19.2121C50.1759 19.1991 49.2659 19.4709 48.8903 19.592C48.9143 19.4517 49.2035 17.6864 49.2035 17.6864C50.3288 17.3604 51.0702 17.2373 51.9052 17.2373C53.8439 17.2373 54.8712 18.0981 54.8689 19.7229C54.8732 20.1583 54.8002 20.6969 54.6865 21.4022C54.4906 22.6286 54.0703 25.2625 54.0125 25.9021Z" fill="#FFFFFE"/>
<path fill-rule="evenodd" clip-rule="evenodd" d="M48.7498 15.8303L48.3801 18.0918C47.574 17.6915 46.99 17.5295 46.3633 17.5295C44.6777 17.5295 43.4956 19.139 43.4956 21.4346C43.4956 23.0162 44.2902 23.9718 45.6028 23.9718C46.1585 23.9718 46.7728 23.8019 47.5201 23.4373L47.1234 25.8121C46.2923 26.0362 45.7543 26.1177 45.1286 26.1177C42.6976 26.1177 41.1836 24.3909 41.1836 21.6184C41.1836 17.8928 43.2767 15.2891 46.2683 15.2891C47.2542 15.2891 48.4186 15.7017 48.7498 15.8303Z" fill="#FFFFFE"/>
<path fill-rule="evenodd" clip-rule="evenodd" d="M37.5358 17.3283C37.2518 19.9515 36.7493 22.6085 36.3573 25.233L36.2544 25.8032H38.5131C39.3212 20.6204 39.5151 19.609 40.7804 19.7353C40.9832 18.6745 41.3595 17.7455 41.6385 17.2773C40.6936 17.0825 40.1649 17.6105 39.4741 18.6138C39.5286 18.1796 39.6289 17.7585 39.6088 17.3283H37.5358Z" fill="#FFFFFE"/>
<path fill-rule="evenodd" clip-rule="evenodd" d="M35.4779 25.7063C34.7069 25.9395 33.9619 26.0499 33.1748 26.0492C30.662 26.0476 29.353 24.7504 29.353 22.2685C29.353 19.3706 31.0186 17.2373 33.2793 17.2373C35.1312 17.2373 36.3123 18.4315 36.3123 20.306C36.3123 20.9271 36.2301 21.5334 36.0362 22.3896H31.5671C31.4152 23.6192 32.2122 24.1322 33.5172 24.1322C34.3201 24.1322 35.045 23.9679 35.8515 23.5978L35.4779 25.7063ZM34.2165 20.6804C34.2287 20.5031 34.4542 19.1676 33.1718 19.1676C32.4573 19.1676 31.9463 19.7069 31.738 20.6804H34.2165Z" fill="#FFFFFE"/>
<path fill-rule="evenodd" clip-rule="evenodd" d="M28.4875 25.8915C27.87 26.0838 27.3882 26.1672 26.866 26.1672C25.7119 26.1672 25.0815 25.5117 25.0815 24.3061C25.0657 23.9301 25.2481 22.9466 25.3914 22.0465C25.5216 21.2539 26.3704 16.2627 26.3704 16.2627H28.6144L28.3521 17.5452H29.504L29.1974 19.5817H28.0416C27.781 21.1948 27.4089 23.2014 27.4047 23.4677C27.4047 23.906 27.6413 24.0957 28.1783 24.0957C28.4353 24.0957 28.6344 24.0707 28.7869 24.0158L28.4875 25.8915Z" fill="#FFFFFE"/>
<path fill-rule="evenodd" clip-rule="evenodd" d="M19.6909 20.1063C19.6909 21.1794 20.2174 21.9171 21.4107 22.4733C22.3246 22.898 22.4659 23.0237 22.4659 23.4088C22.4659 23.9371 22.063 24.1754 21.1694 24.1754C20.4957 24.1754 19.8693 24.0722 19.1463 23.8419C19.1463 23.8419 18.8506 25.7093 18.8364 25.7976C19.3494 25.9086 19.8072 26.0099 21.1855 26.0492C23.5682 26.0492 24.6684 25.1534 24.6684 23.2166C24.6684 22.0516 24.2077 21.3684 23.0768 20.8554C22.1304 20.4252 22.0216 20.33 22.0216 19.9339C22.0216 19.4758 22.3966 19.24 23.1265 19.24C23.5691 19.24 24.1748 19.2887 24.7486 19.3686L25.07 17.4032C24.4854 17.312 23.5994 17.2373 23.0828 17.2373C20.5572 17.2373 19.6833 18.5406 19.6909 20.1063Z" fill="#FFFFFE"/>
<path fill-rule="evenodd" clip-rule="evenodd" d="M16.8778 22.1269C16.6411 22.0996 16.5366 22.0922 16.374 22.0922C15.0942 22.0922 14.4465 22.5253 14.4465 23.3815C14.4465 23.9085 14.7626 24.2459 15.2559 24.2459C16.1758 24.2459 16.8386 23.3809 16.8778 22.1269ZM18.5196 25.9021H16.6494L16.6921 25.0245C16.1216 25.7177 15.3601 26.0492 14.3259 26.0492C13.1024 26.0492 12.2637 25.1044 12.2637 23.7335C12.2637 21.6691 13.7225 20.4671 16.2271 20.4671C16.4834 20.4671 16.8114 20.4901 17.1472 20.533C17.2172 20.2524 17.2356 20.1333 17.2356 19.9813C17.2356 19.4209 16.8423 19.2121 15.788 19.2121C14.6828 19.1991 13.7725 19.4709 13.3978 19.592C13.4215 19.4517 13.711 17.6864 13.711 17.6864C14.8359 17.3604 15.578 17.2373 16.4131 17.2373C18.3517 17.2373 19.3784 18.0981 19.3764 19.7229C19.3803 20.1583 19.3074 20.6969 19.194 21.4022C18.9978 22.6286 18.5771 25.2625 18.5196 25.9021Z" fill="#FFFFFE"/>
<path fill-rule="evenodd" clip-rule="evenodd" d="M11.1287 26.0341H8.87127L10.1648 18.0232L7.27705 26.0341H5.73836L5.54808 18.0696L4.18883 26.0341H2.07568L3.8408 15.6133H7.08742L7.1778 22.0643L9.3685 15.6133H12.8747L11.1287 26.0341Z" fill="#FFFFFE"/>
</g>
<defs>
<clipPath id="clip0">
<rect width="70" height="42" fill="white"/>
</clipPath>
</defs>
</svg>
