<svg width="65" height="19" viewBox="0 0 65 19" fill="none" xmlns="http://www.w3.org/2000/svg">
<g clip-path="url(#clip0)">
<path fill-rule="evenodd" clip-rule="evenodd" d="M57.7039 0H45.3672C46.0305 4.20714 50.01 8.14286 54.3876 8.14286H64.2039C64.3366 7.73571 64.3366 7.19286 64.3366 6.78571C64.3366 2.98571 61.4182 0 57.7039 0Z" fill="url(#paint0_linear)"/>
<path fill-rule="evenodd" clip-rule="evenodd" d="M46.4287 8.82129V18.9999H52.3981V13.5713H57.7042C60.6226 13.5713 63.143 11.5356 63.9389 8.82129H46.4287Z" fill="#4DB45F"/>
<path fill-rule="evenodd" clip-rule="evenodd" d="M25.2041 0V19H30.5102C30.5102 19 31.8368 19 32.5 17.6429C36.0817 10.3143 37.1429 8.14286 37.1429 8.14286H37.8061V19H43.7755V0H38.4694C38.4694 0 37.1429 0.135714 36.4796 1.35714C33.4286 7.6 31.8368 10.8571 31.8368 10.8571H31.1735V0H25.2041Z" fill="#4DB45F"/>
<path fill-rule="evenodd" clip-rule="evenodd" d="M0 19V0H5.96939C5.96939 0 7.69388 0 8.62245 2.71429C11.0102 9.90714 11.2755 10.8571 11.2755 10.8571C11.2755 10.8571 11.8061 9.09286 13.9286 2.71429C14.8571 0 16.5816 0 16.5816 0H22.551V19H16.5816V8.82143H15.9184L12.602 19H9.94898L6.63265 8.82143H5.96939V19H0Z" fill="#4DB45F"/>
</g>
<defs>
<linearGradient id="paint0_linear" x1="45.333" y1="4.07143" x2="64.3366" y2="4.07143" gradientUnits="userSpaceOnUse">
<stop stop-color="#00B4E6"/>
<stop offset="1" stop-color="#088CCB"/>
</linearGradient>
<clipPath id="clip0">
<rect width="65" height="19" fill="white"/>
</clipPath>
</defs>
</svg>
