<svg width="120" height="120" viewBox="0 0 120 120" fill="none" xmlns="http://www.w3.org/2000/svg">
<path opacity="0.75" d="M60 120C67.8793 120 75.6815 118.448 82.961 115.433C90.2405 112.417 96.8549 107.998 102.426 102.426C107.998 96.8549 112.417 90.2405 115.433 82.961C118.448 75.6815 120 67.8793 120 60C120 52.1207 118.448 44.3185 115.433 37.039C112.417 29.7595 107.998 23.1451 102.426 17.5736C96.8549 12.0021 90.2405 7.58251 82.961 4.56723C75.6815 1.55195 67.8793 -3.44416e-07 60 0V3C67.4853 3 74.8974 4.47435 81.813 7.33887C88.7285 10.2034 95.0121 14.402 100.305 19.6949C105.598 24.9879 109.797 31.2715 112.661 38.187C115.526 45.1026 117 52.5147 117 60C117 67.4853 115.526 74.8974 112.661 81.813C109.797 88.7285 105.598 95.0121 100.305 100.305C95.0121 105.598 88.7285 109.797 81.813 112.661C74.8974 115.526 67.4853 117 60 117V120Z" fill="white"/>
<path d="M60 0C52.1207 -9.39599e-08 44.3185 1.55195 37.039 4.56723C29.7595 7.58251 23.1451 12.0021 17.5736 17.5736C12.0021 23.1451 7.58251 29.7595 4.56723 37.039C1.55195 44.3185 -2.50456e-07 52.1207 0 60C2.50456e-07 67.8793 1.55195 75.6815 4.56723 82.961C7.58251 90.2405 12.0021 96.8549 17.5736 102.426C23.1451 107.998 29.7595 112.417 37.039 115.433C44.3185 118.448 52.1207 120 60 120V108C53.6966 108 47.4548 106.758 41.6312 104.346C35.8076 101.934 30.5161 98.3983 26.0589 93.9411C21.6017 89.4839 18.066 84.1924 15.6538 78.3688C13.2416 72.5452 12 66.3035 12 60C12 53.6966 13.2416 47.4548 15.6538 41.6312C18.066 35.8076 21.6017 30.5161 26.0589 26.0589C30.5161 21.6017 35.8076 18.066 41.6312 15.6538C47.4548 13.2416 53.6966 12 60 12V0Z" fill="#FF3300"/>
<path d="M79.2729 60.0003L50.3639 76.6909L50.3639 43.3096L79.2729 60.0003Z" fill="#FF3300"/>
</svg>
