<svg width="67" height="22" viewBox="0 0 67 22" fill="none" xmlns="http://www.w3.org/2000/svg">
<path fill-rule="evenodd" clip-rule="evenodd" d="M64.8013 19.6311C64.8013 19.0673 65.2787 18.6104 65.8674 18.6104C66.457 18.6104 66.9335 19.0673 66.9335 19.6311C66.9335 20.1944 66.457 20.6519 65.8674 20.6519C65.2787 20.6519 64.8013 20.1944 64.8013 19.6311ZM65.8674 20.4062C66.3161 20.4062 66.6783 20.0591 66.6783 19.6311C66.6783 19.2016 66.3161 18.8556 65.8674 18.8556C65.4207 18.8556 65.058 19.2016 65.058 19.6311C65.058 20.0591 65.4207 20.4062 65.8674 20.4062ZM65.7239 20.0786H65.5057V19.1822H65.9013C65.9837 19.1822 66.0672 19.1832 66.1403 19.2271C66.2159 19.278 66.2587 19.3624 66.2587 19.4513C66.2587 19.5537 66.1977 19.6486 66.0975 19.6836L66.2686 20.0786H66.026L65.8841 19.7235H65.7239V20.0786ZM65.7239 19.5702H65.8439C65.8893 19.5702 65.9378 19.5742 65.9775 19.5537C66.0135 19.5312 66.0323 19.4893 66.0323 19.4493C66.0323 19.4164 66.0103 19.3764 65.9796 19.3589C65.9409 19.3375 65.8804 19.342 65.8397 19.342H65.7239V19.5702Z" fill="white"/>
<path fill-rule="evenodd" clip-rule="evenodd" d="M59.5387 20.7155L58.9348 17.9184H52.3826L51.3085 20.7155H45.9373L53.6224 3.28381C53.6224 3.28381 54.0892 1.88086 56.0027 1.88086H60.1451L64.2707 20.7155H59.5387ZM53.868 14.0536H58.0996L56.5755 7.00367L53.868 14.0536Z" fill="white"/>
<path fill-rule="evenodd" clip-rule="evenodd" d="M46.3394 6.40986L47.0754 2.36507C47.0754 2.36507 44.8052 1.54395 42.4401 1.54395C39.8823 1.54395 33.8087 2.60756 33.8087 7.7792C33.8087 12.6459 40.9378 12.7067 40.9378 15.2605C40.9378 17.8159 34.5438 17.3598 32.4326 15.7479L31.6672 19.976C31.6672 19.976 33.9676 21.0404 37.4851 21.0404C41.0009 21.0404 46.3083 19.3069 46.3083 14.5923C46.3083 9.69515 39.1152 9.23817 39.1152 7.10933C39.1152 4.9797 44.1349 5.2534 46.3394 6.40986Z" fill="white"/>
<path fill-rule="evenodd" clip-rule="evenodd" d="M28.4911 20.7155H23.3376L26.5582 1.88086H31.7133L28.4911 20.7155Z" fill="white"/>
<path fill-rule="evenodd" clip-rule="evenodd" d="M5.26714 1.88086H9.32839C11.564 1.88086 11.7726 3.57673 11.7726 3.57673L13.507 12.0465C13.507 12.0465 12.3412 8.61071 8.76065 5.85282C5.01607 2.96929 1.11168 2.19938 1.11084 2.19938L1.20588 1.88086H5.26714H9.32839C11.564 1.88086 11.7726 3.57673 11.7726 3.57673L13.507 12.0465V12.0457L14.089 14.8356L19.0019 1.88086H24.5489L16.3491 20.7155H10.9795L6.50314 4.35223C3.59545 2.69078 1.11168 2.19938 1.11084 2.19938L1.20588 1.88086H5.26714Z" fill="white"/>
<path fill-rule="evenodd" clip-rule="evenodd" d="M13.507 12.0465L11.7726 3.57673C11.7726 3.57673 11.564 1.88086 9.32839 1.88086H1.20588L1.11084 2.19938C1.11168 2.19938 5.01607 2.96929 8.76065 5.85282C12.3412 8.61071 13.507 12.0465 13.507 12.0465Z" fill="#F9A533"/>
</svg>
